<svg id="f02c246f-838f-4718-8dba-a68e1901eba0" data-name="Слой 1" xmlns="http://www.w3.org/2000/svg" width="31.2" height="50.43" viewBox="0 0 31.2 50.43">
  <title>Лого</title>
  <g>
    <path d="M661.83,343.7a15.22,15.22,0,0,0,3.11-9.19c0-8.54,0-15.45-15-34.55a113.58,113.58,0,0,0-10.58,14.64,14.3,14.3,0,0,1,10.7-4.8,9.39,9.39,0,0,1,9.39,9.39,6.3,6.3,0,0,1-6.3,6.3,4.45,4.45,0,0,1-4.44-4.44,3.21,3.21,0,0,1,3.21-3.21,2.59,2.59,0,0,1,2.59,2.59,2,2,0,0,1-2.54,1.89,2.09,2.09,0,0,0,1.19.47,3.59,3.59,0,0,0,3.59-3.59,6.68,6.68,0,0,0-6.68-6.68,11.63,11.63,0,0,0-11.63,11.63,19.66,19.66,0,0,0,19.66,19.66c0.54,0,2.42,0,3.72-.1h0Zm-2.69,2.78h-1a22.36,22.36,0,0,1-22.37-22.37,14.43,14.43,0,0,1,.19-2.36c-1.76,4.9-1.76,8.63-1.76,12.74A15.65,15.65,0,0,0,649.56,350a15.25,15.25,0,0,0,9.58-3.48h0Z" transform="translate(-633.96 -299.75)" fill="#fff" stroke="#fff" stroke-linecap="round" stroke-linejoin="round" stroke-width="0.43"/>
    <path d="M648.68,301.53l1.41-1.41m-9,11.69,10.17-10.17m-6.45,9.15,7.61-7.61m-16.81,19.51,0.22-.22M640,318.3l4.24-4.24m4.17-4.17,5.16-5.16M634.7,326.31l1.07-1.07m2.8-2.8,9.82-9.82m2.76-2.76,3.56-3.56m-20.4,23.1,1.72-1.72m2.45-2.45,12.65-12.65m2.2-2.2,2.49-2.49m-21.63,24.33,2.31-2.31m2.26-2.26,14.4-14.4m2-2,1.77-1.77m-22.72,25.43,3-3m2.13-2.13,9.52-9.52m2.4-2.4,3.53-3.53m1.91-1.91,1.32-1.32m-23.51,26.21,3.51-3.51m2-2,9.06-9.06m4.41-4.41,2.43-2.43m2-2,1.12-1.12M635,339.5l3.88-3.88m2-2,9.3-9.3m1.92-1.92,0.06-.06m2.32-2.32,2.15-2.15m2.17-2.17,1.18-1.18m-24.14,26.84,4.14-4.14m1.94-1.94,10-10m3-3,1.43-1.43m3-3,1.55-1.55m-24.07,26.77,4.33-4.33m1.92-1.92,11.52-11.52m4.67-4.67,2.51-2.51M638,344.6l4.46-4.46m1.91-1.91L662.62,320m-23.25,26,4.55-4.55m1.92-1.92L663.35,322m-22.47,25.17,4.58-4.58m1.95-1.95L664,324.07m-21.41,24.11,4.57-4.57m2-2,15.33-15.33m-20,22.73,4.5-4.5m2.06-2.06,13.78-13.78m-18.26,21,4.35-4.35m2.16-2.16,11.9-11.9m-16,18.72,4.05-4.05m2.31-2.31,9.69-9.69m-13.2,15.9,3.48-3.48m2.52-2.52,7-7m-9.2,11.9,2.18-2.18m2.74-2.74,3.16-3.16" transform="translate(-633.96 -299.75)" fill="#fff" stroke="#fff" stroke-linecap="round" stroke-linejoin="round" stroke-width="0.22"/>
  </g>
</svg>
