<svg id="7d3b10d6-7a6e-476b-86a2-c69453b8bba6" data-name="Слой 1" xmlns="http://www.w3.org/2000/svg" width="20.6" height="20.6" viewBox="0 0 20.6 20.6">
  <defs>
    <style>
      .d6f3157a-3831-45a3-9ef8-fc65f5de19b9 {
        fill: none;
        stroke: #fff;
        stroke-width: 0.6px;
      }
    </style>
  </defs>
  <title>Phone</title>
  <g id="8d1d854d-b0e2-4bd1-a0de-109a997f27d3" data-name="Слой_1">
    <path class="d6f3157a-3831-45a3-9ef8-fc65f5de19b9" d="M878.48,1244.47s1.7-1,2.15-1.22a1.25,1.25,0,0,1,1.16-.11c0.42,0.25,3.93,2.6,4.25,2.8a1,1,0,0,1,0,1.39c-0.4.59-2.29,2.89-3.08,2.86s-4.1-.08-10.33-6.34-6.31-9.54-6.34-10.33,2.29-2.69,2.86-3.08a1,1,0,0,1,1.39,0c0.23,0.34,2.55,3.85,2.8,4.25a1.25,1.25,0,0,1-.11,1.16c-0.23.45-1.22,2.15-1.22,2.15A32.67,32.67,0,0,0,878.48,1244.47Z" transform="translate(-866.01 -1229.89)"/>
  </g>
</svg>
